<?xml version="1.0" encoding="UTF-8" standalone="no"?>
<!DOCTYPE svg PUBLIC "-//W3C//DTD SVG 1.1//EN"
 "http://www.w3.org/Graphics/SVG/1.1/DTD/svg11.dtd">
<!-- Generated by graphviz version 2.38.0 (20140413.2041)
 -->
<!-- Title: controllers_diagram Pages: 1 -->
<svg width="580pt" height="529pt"
 viewBox="0.00 0.00 580.11 529.00" xmlns="http://www.w3.org/2000/svg" xmlns:xlink="http://www.w3.org/1999/xlink">
<g id="graph0" class="graph" transform="scale(1 1) rotate(0) translate(220.386 273.5)">
<title>controllers_diagram</title>
<polygon fill="white" stroke="none" points="-220.386,255.5 -220.386,-273.5 359.72,-273.5 359.72,255.5 -220.386,255.5"/>
<!-- _diagram_info -->
<g id="node1" class="node"><title>_diagram_info</title>
<text text-anchor="start" x="188.28" y="170.4" font-family="Times,serif" font-size="13.00">Controllers diagram</text>
<text text-anchor="start" x="188.28" y="183.4" font-family="Times,serif" font-size="13.00">Date: Mar 20 2015 &#45; 17:07</text>
<text text-anchor="start" x="188.28" y="196.4" font-family="Times,serif" font-size="13.00">Generated by RailRoady 1.2.0</text>
<text text-anchor="start" x="188.28" y="209.4" font-family="Times,serif" font-size="13.00">http://railroady.prestonlee.com</text>
</g>
<!-- ApplicationController -->
<g id="node2" class="node"><title>ApplicationController</title>
<path fill="none" stroke="black" d="M12.1792,251C12.1792,251 127.821,251 127.821,251 133.821,251 139.821,245 139.821,239 139.821,239 139.821,171 139.821,171 139.821,165 133.821,159 127.821,159 127.821,159 12.1792,159 12.1792,159 6.1792,159 0.179199,165 0.179199,171 0.179199,171 0.179199,239 0.179199,239 0.179199,245 6.1792,251 12.1792,251"/>
<text text-anchor="middle" x="70" y="174.2" font-family="Times,serif" font-size="14.00">ApplicationController</text>
<polyline fill="none" stroke="black" points="0.179199,181 139.821,181 "/>
<polyline fill="none" stroke="black" points="0.179199,205 139.821,205 "/>
<polyline fill="none" stroke="black" points="0.179199,229 139.821,229 "/>
<text text-anchor="start" x="8.1792" y="244.2" font-family="Times,serif" font-size="14.00">_layout</text>
</g>
<!-- ConceptsController -->
<g id="node3" class="node"><title>ConceptsController</title>
<path fill="none" stroke="black" d="M120.369,-109C120.369,-109 289.631,-109 289.631,-109 295.631,-109 301.631,-115 301.631,-121 301.631,-121 301.631,-257 301.631,-257 301.631,-263 295.631,-269 289.631,-269 289.631,-269 120.369,-269 120.369,-269 114.369,-269 108.369,-263 108.369,-257 108.369,-257 108.369,-121 108.369,-121 108.369,-115 114.369,-109 120.369,-109"/>
<text text-anchor="middle" x="205" y="-253.8" font-family="Times,serif" font-size="14.00">ConceptsController</text>
<polyline fill="none" stroke="black" points="108.369,-247 301.631,-247 "/>
<text text-anchor="start" x="116.369" y="-231.8" font-family="Times,serif" font-size="14.00">create</text>
<text text-anchor="start" x="116.369" y="-217.8" font-family="Times,serif" font-size="14.00">edit</text>
<text text-anchor="start" x="116.369" y="-203.8" font-family="Times,serif" font-size="14.00">index</text>
<text text-anchor="start" x="116.369" y="-189.8" font-family="Times,serif" font-size="14.00">new</text>
<text text-anchor="start" x="116.369" y="-175.8" font-family="Times,serif" font-size="14.00">successful_concept_save_event</text>
<text text-anchor="start" x="116.369" y="-161.8" font-family="Times,serif" font-size="14.00">update</text>
<polyline fill="none" stroke="black" points="108.369,-155 301.631,-155 "/>
<polyline fill="none" stroke="black" points="108.369,-131 301.631,-131 "/>
<text text-anchor="start" x="116.369" y="-115.8" font-family="Times,serif" font-size="14.00">_layout</text>
</g>
<!-- ConfigurationsController -->
<g id="node4" class="node"><title>ConfigurationsController</title>
<path fill="none" stroke="black" d="M-204.386,215C-204.386,215 -71.6138,215 -71.6138,215 -65.6138,215 -59.6138,209 -59.6138,203 -59.6138,203 -59.6138,137 -59.6138,137 -59.6138,131 -65.6138,125 -71.6138,125 -71.6138,125 -204.386,125 -204.386,125 -210.386,125 -216.386,131 -216.386,137 -216.386,137 -216.386,203 -216.386,203 -216.386,209 -210.386,215 -204.386,215"/>
<text text-anchor="middle" x="-138" y="140.2" font-family="Times,serif" font-size="14.00">ConfigurationsController</text>
<polyline fill="none" stroke="black" points="-216.386,147 -59.6138,147 "/>
<text text-anchor="start" x="-208.386" y="162.2" font-family="Times,serif" font-size="14.00">index</text>
<polyline fill="none" stroke="black" points="-216.386,169 -59.6138,169 "/>
<polyline fill="none" stroke="black" points="-216.386,193 -59.6138,193 "/>
<text text-anchor="start" x="-208.386" y="208.2" font-family="Times,serif" font-size="14.00">_layout</text>
</g>
<!-- GreenKiwisController -->
<g id="node5" class="node"><title>GreenKiwisController</title>
<path fill="none" stroke="black" d="M-96.0693,89C-96.0693,89 84.0693,89 84.0693,89 90.0693,89 96.0693,83 96.0693,77 96.0693,77 96.0693,-59 96.0693,-59 96.0693,-65 90.0693,-71 84.0693,-71 84.0693,-71 -96.0693,-71 -96.0693,-71 -102.069,-71 -108.069,-65 -108.069,-59 -108.069,-59 -108.069,77 -108.069,77 -108.069,83 -102.069,89 -96.0693,89"/>
<text text-anchor="middle" x="-6" y="-55.8" font-family="Times,serif" font-size="14.00">GreenKiwisController</text>
<polyline fill="none" stroke="black" points="-108.069,-49 96.0693,-49 "/>
<text text-anchor="start" x="-100.069" y="-33.8" font-family="Times,serif" font-size="14.00">create</text>
<text text-anchor="start" x="-100.069" y="-19.8" font-family="Times,serif" font-size="14.00">edit</text>
<text text-anchor="start" x="-100.069" y="-5.8" font-family="Times,serif" font-size="14.00">index</text>
<text text-anchor="start" x="-100.069" y="8.2" font-family="Times,serif" font-size="14.00">new</text>
<text text-anchor="start" x="-100.069" y="22.2" font-family="Times,serif" font-size="14.00">successful_green_manager_event</text>
<text text-anchor="start" x="-100.069" y="36.2" font-family="Times,serif" font-size="14.00">update</text>
<polyline fill="none" stroke="black" points="-108.069,43 96.0693,43 "/>
<polyline fill="none" stroke="black" points="-108.069,67 96.0693,67 "/>
<text text-anchor="start" x="-100.069" y="82.2" font-family="Times,serif" font-size="14.00">_layout</text>
</g>
<!-- IdAttributesController -->
<g id="node6" class="node"><title>IdAttributesController</title>
<path fill="none" stroke="black" d="M137.634,125C137.634,125 256.366,125 256.366,125 262.366,125 268.366,119 268.366,113 268.366,113 268.366,-23 268.366,-23 268.366,-29 262.366,-35 256.366,-35 256.366,-35 137.634,-35 137.634,-35 131.634,-35 125.634,-29 125.634,-23 125.634,-23 125.634,113 125.634,113 125.634,119 131.634,125 137.634,125"/>
<text text-anchor="middle" x="197" y="-19.8" font-family="Times,serif" font-size="14.00">IdAttributesController</text>
<polyline fill="none" stroke="black" points="125.634,-13 268.366,-13 "/>
<text text-anchor="start" x="133.634" y="2.2" font-family="Times,serif" font-size="14.00">create</text>
<text text-anchor="start" x="133.634" y="16.2" font-family="Times,serif" font-size="14.00">edit</text>
<text text-anchor="start" x="133.634" y="30.2" font-family="Times,serif" font-size="14.00">index</text>
<text text-anchor="start" x="133.634" y="44.2" font-family="Times,serif" font-size="14.00">new</text>
<text text-anchor="start" x="133.634" y="58.2" font-family="Times,serif" font-size="14.00">successful_save_event</text>
<text text-anchor="start" x="133.634" y="72.2" font-family="Times,serif" font-size="14.00">update</text>
<polyline fill="none" stroke="black" points="125.634,79 268.366,79 "/>
<polyline fill="none" stroke="black" points="125.634,103 268.366,103 "/>
<text text-anchor="start" x="133.634" y="118.2" font-family="Times,serif" font-size="14.00">_layout</text>
</g>
<!-- RefsController -->
<g id="node7" class="node"><title>RefsController</title>
<path fill="none" stroke="black" d="M-77.6348,-109C-77.6348,-109 63.6348,-109 63.6348,-109 69.6348,-109 75.6348,-115 75.6348,-121 75.6348,-121 75.6348,-257 75.6348,-257 75.6348,-263 69.6348,-269 63.6348,-269 63.6348,-269 -77.6348,-269 -77.6348,-269 -83.6348,-269 -89.6348,-263 -89.6348,-257 -89.6348,-257 -89.6348,-121 -89.6348,-121 -89.6348,-115 -83.6348,-109 -77.6348,-109"/>
<text text-anchor="middle" x="-7" y="-253.8" font-family="Times,serif" font-size="14.00">RefsController</text>
<polyline fill="none" stroke="black" points="-89.6348,-247 75.6348,-247 "/>
<text text-anchor="start" x="-81.6348" y="-231.8" font-family="Times,serif" font-size="14.00">create</text>
<text text-anchor="start" x="-81.6348" y="-217.8" font-family="Times,serif" font-size="14.00">edit</text>
<text text-anchor="start" x="-81.6348" y="-203.8" font-family="Times,serif" font-size="14.00">index</text>
<text text-anchor="start" x="-81.6348" y="-189.8" font-family="Times,serif" font-size="14.00">new</text>
<text text-anchor="start" x="-81.6348" y="-175.8" font-family="Times,serif" font-size="14.00">successful_ref_save_event</text>
<text text-anchor="start" x="-81.6348" y="-161.8" font-family="Times,serif" font-size="14.00">update</text>
<polyline fill="none" stroke="black" points="-89.6348,-155 75.6348,-155 "/>
<polyline fill="none" stroke="black" points="-89.6348,-131 75.6348,-131 "/>
<text text-anchor="start" x="-81.6348" y="-115.8" font-family="Times,serif" font-size="14.00">_layout</text>
</g>
</g>
</svg>
