<?xml version="1.0" encoding="UTF-8" standalone="no"?>
<!DOCTYPE svg PUBLIC "-//W3C//DTD SVG 1.1//EN"
 "http://www.w3.org/Graphics/SVG/1.1/DTD/svg11.dtd">
<!-- Generated by graphviz version 2.38.0 (20140413.2041)
 -->
<!-- Title: models_diagram Pages: 1 -->
<svg width="514pt" height="140pt"
 viewBox="0.00 0.00 514.12 140.00" xmlns="http://www.w3.org/2000/svg" xmlns:xlink="http://www.w3.org/1999/xlink">
<g id="graph0" class="graph" transform="scale(1 1) rotate(0) translate(4 136)">
<title>models_diagram</title>
<polygon fill="white" stroke="none" points="-4,4 -4,-136 510.122,-136 510.122,4 -4,4"/>
<!-- _diagram_info -->
<g id="node1" class="node"><title>_diagram_info</title>
<text text-anchor="start" x="8" y="-117.6" font-family="Times,serif" font-size="13.00">Models diagram</text>
<text text-anchor="start" x="8" y="-104.6" font-family="Times,serif" font-size="13.00">Date: Mar 20 2015 &#45; 17:07</text>
<text text-anchor="start" x="8" y="-91.6" font-family="Times,serif" font-size="13.00">Generated by RailRoady 1.2.0</text>
<text text-anchor="start" x="8" y="-78.6" font-family="Times,serif" font-size="13.00">http://railroady.prestonlee.com</text>
</g>
<!-- Concept -->
<g id="node2" class="node"><title>Concept</title>
<ellipse fill="none" stroke="black" cx="232.72" cy="-102" rx="39.6558" ry="18"/>
<text text-anchor="middle" x="232.72" y="-97.8" font-family="Times,serif" font-size="14.00">Concept</text>
</g>
<!-- Ref -->
<g id="node6" class="node"><title>Ref</title>
<ellipse fill="none" stroke="black" cx="232.72" cy="-18" rx="27" ry="18"/>
<text text-anchor="middle" x="232.72" y="-13.8" font-family="Times,serif" font-size="14.00">Ref</text>
</g>
<!-- Concept&#45;&gt;Ref -->
<g id="edge1" class="edge"><title>Concept&#45;&gt;Ref</title>
<path fill="none" stroke="#030999" d="M226.441,-75.8696C225.85,-66.39 225.815,-55.5721 226.336,-45.9341"/>
<ellipse fill="none" stroke="#030999" cx="226.791" cy="-80.0237" rx="4" ry="4"/>
<polygon fill="#030999" stroke="#030999" points="226.359,-45.6559 231.646,-36.0491 226.76,-40.672 227.161,-35.6881 227.161,-35.6881 227.161,-35.6881 226.76,-40.672 222.675,-35.3271 226.359,-45.6559 226.359,-45.6559"/>
</g>
<!-- GreenKiwi -->
<g id="node3" class="node"><title>GreenKiwi</title>
<ellipse fill="none" stroke="black" cx="339.72" cy="-102" rx="49.2946" ry="18"/>
<text text-anchor="middle" x="339.72" y="-97.8" font-family="Times,serif" font-size="14.00">GreenKiwi</text>
</g>
<!-- ProfileItem -->
<g id="node5" class="node"><title>ProfileItem</title>
<ellipse fill="none" stroke="black" cx="339.72" cy="-18" rx="49.7964" ry="18"/>
<text text-anchor="middle" x="339.72" y="-13.8" font-family="Times,serif" font-size="14.00">ProfileItem</text>
</g>
<!-- GreenKiwi&#45;&gt;ProfileItem -->
<g id="edge2" class="edge"><title>GreenKiwi&#45;&gt;ProfileItem</title>
<path fill="none" stroke="#f853e6" d="M333.445,-75.9264C332.856,-66.5149 332.815,-55.7777 333.323,-46.1835"/>
<ellipse fill="none" stroke="#f853e6" cx="333.791" cy="-80.0237" rx="4" ry="4"/>
<polygon fill="#f853e6" stroke="#f853e6" points="333.342,-45.9376 338.616,-36.323 333.736,-40.9532 334.13,-35.9687 334.13,-35.9687 334.13,-35.9687 333.736,-40.9532 329.644,-35.6143 333.342,-45.9376 333.342,-45.9376"/>
</g>
<!-- IdAttribute -->
<g id="node4" class="node"><title>IdAttribute</title>
<ellipse fill="none" stroke="black" cx="456.72" cy="-102" rx="49.3032" ry="18"/>
<text text-anchor="middle" x="456.72" y="-97.8" font-family="Times,serif" font-size="14.00">IdAttribute</text>
</g>
<!-- ProfileItem&#45;&gt;GreenKiwi -->
<g id="edge3" class="edge"><title>ProfileItem&#45;&gt;GreenKiwi</title>
<path fill="none" stroke="#c6ab3e" d="M346.115,-46.1482C346.585,-54.997 346.588,-64.8213 346.124,-73.6824"/>
<polygon fill="#c6ab3e" stroke="#c6ab3e" points="346.099,-45.9376 349.797,-35.6139 345.705,-40.9531 345.311,-35.9687 345.311,-35.9687 345.311,-35.9687 345.705,-40.9531 340.825,-36.3234 346.099,-45.9376 346.099,-45.9376"/>
<polygon fill="#c6ab3e" stroke="#c6ab3e" points="346.096,-74.0403 340.827,-83.657 345.705,-79.0249 345.313,-84.0095 345.313,-84.0095 345.313,-84.0095 345.705,-79.0249 349.799,-84.3621 346.096,-74.0403 346.096,-74.0403"/>
</g>
<!-- Ref&#45;&gt;Concept -->
<g id="edge4" class="edge"><title>Ref&#45;&gt;Concept</title>
<path fill="none" stroke="#42a577" d="M239.092,-45.7122C239.591,-54.7753 239.596,-64.903 239.108,-73.9892"/>
<polygon fill="#42a577" stroke="#42a577" points="239.087,-45.6554 242.765,-35.3246 238.683,-40.6718 238.279,-35.6881 238.279,-35.6881 238.279,-35.6881 238.683,-40.6718 233.794,-36.0517 239.087,-45.6554 239.087,-45.6554"/>
<polygon fill="#42a577" stroke="#42a577" points="239.104,-74.0409 233.827,-83.6535 238.709,-79.0252 238.313,-84.0095 238.313,-84.0095 238.313,-84.0095 238.709,-79.0252 242.799,-84.3656 239.104,-74.0409 239.104,-74.0409"/>
</g>
</g>
</svg>
