<?xml version="1.0" encoding="UTF-8" standalone="no"?>
<!DOCTYPE svg PUBLIC "-//W3C//DTD SVG 1.1//EN"
 "http://www.w3.org/Graphics/SVG/1.1/DTD/svg11.dtd">
<!-- Generated by graphviz version 2.38.0 (20140413.2041)
 -->
<!-- Title: models_diagram Pages: 1 -->
<svg width="719pt" height="442pt"
 viewBox="0.00 0.00 718.57 442.00" xmlns="http://www.w3.org/2000/svg" xmlns:xlink="http://www.w3.org/1999/xlink">
<g id="graph0" class="graph" transform="scale(1 1) rotate(0) translate(4 438)">
<title>models_diagram</title>
<polygon fill="white" stroke="none" points="-4,4 -4,-438 714.574,-438 714.574,4 -4,4"/>
<!-- _diagram_info -->
<g id="node1" class="node"><title>_diagram_info</title>
<text text-anchor="start" x="8" y="-315.1" font-family="Times,serif" font-size="13.00">Models diagram</text>
<text text-anchor="start" x="8" y="-302.1" font-family="Times,serif" font-size="13.00">Date: Mar 20 2015 &#45; 17:07</text>
<text text-anchor="start" x="8" y="-289.1" font-family="Times,serif" font-size="13.00">Generated by RailRoady 1.2.0</text>
<text text-anchor="start" x="8" y="-276.1" font-family="Times,serif" font-size="13.00">http://railroady.prestonlee.com</text>
</g>
<!-- Concept -->
<g id="node2" class="node"><title>Concept</title>
<path fill="none" stroke="black" d="M205.029,-249.5C205.029,-249.5 316.412,-249.5 316.412,-249.5 322.412,-249.5 328.412,-255.5 328.412,-261.5 328.412,-261.5 328.412,-337.5 328.412,-337.5 328.412,-343.5 322.412,-349.5 316.412,-349.5 316.412,-349.5 205.029,-349.5 205.029,-349.5 199.029,-349.5 193.029,-343.5 193.029,-337.5 193.029,-337.5 193.029,-261.5 193.029,-261.5 193.029,-255.5 199.029,-249.5 205.029,-249.5"/>
<text text-anchor="middle" x="260.72" y="-334.3" font-family="Times,serif" font-size="14.00">Concept</text>
<polyline fill="none" stroke="black" points="193.029,-327.5 328.412,-327.5 "/>
<text text-anchor="start" x="201.029" y="-312.3" font-family="Times,serif" font-size="14.00">_id :BSON::ObjectId</text>
<text text-anchor="start" x="201.029" y="-298.3" font-family="Times,serif" font-size="14.00">created_at :Time</text>
<text text-anchor="start" x="201.029" y="-284.3" font-family="Times,serif" font-size="14.00">description :String</text>
<text text-anchor="start" x="201.029" y="-270.3" font-family="Times,serif" font-size="14.00">name :String</text>
<text text-anchor="start" x="201.029" y="-256.3" font-family="Times,serif" font-size="14.00">updated_at :Time</text>
</g>
<!-- Ref -->
<g id="node6" class="node"><title>Ref</title>
<path fill="none" stroke="black" d="M205.029,-21.5C205.029,-21.5 316.412,-21.5 316.412,-21.5 322.412,-21.5 328.412,-27.5 328.412,-33.5 328.412,-33.5 328.412,-95.5 328.412,-95.5 328.412,-101.5 322.412,-107.5 316.412,-107.5 316.412,-107.5 205.029,-107.5 205.029,-107.5 199.029,-107.5 193.029,-101.5 193.029,-95.5 193.029,-95.5 193.029,-33.5 193.029,-33.5 193.029,-27.5 199.029,-21.5 205.029,-21.5"/>
<text text-anchor="middle" x="260.72" y="-92.3" font-family="Times,serif" font-size="14.00">Ref</text>
<polyline fill="none" stroke="black" points="193.029,-85.5 328.412,-85.5 "/>
<text text-anchor="start" x="201.029" y="-70.3" font-family="Times,serif" font-size="14.00">_id :BSON::ObjectId</text>
<text text-anchor="start" x="201.029" y="-56.3" font-family="Times,serif" font-size="14.00">created_at :Time</text>
<text text-anchor="start" x="201.029" y="-42.3" font-family="Times,serif" font-size="14.00">name :String</text>
<text text-anchor="start" x="201.029" y="-28.3" font-family="Times,serif" font-size="14.00">updated_at :Time</text>
</g>
<!-- Concept&#45;&gt;Ref -->
<g id="edge1" class="edge"><title>Concept&#45;&gt;Ref</title>
<path fill="none" stroke="#35b763" d="M254.816,-241.286C253.633,-203.461 253.691,-154.268 254.988,-117.544"/>
<ellipse fill="none" stroke="#35b763" cx="254.957" cy="-245.374" rx="4" ry="4"/>
<polygon fill="#35b763" stroke="#35b763" points="254.989,-117.529 259.884,-107.716 255.188,-112.533 255.387,-107.537 255.387,-107.537 255.387,-107.537 255.188,-112.533 250.891,-107.358 254.989,-117.529 254.989,-117.529"/>
</g>
<!-- GreenKiwi -->
<g id="node3" class="node"><title>GreenKiwi</title>
<path fill="none" stroke="black" d="M389.029,-256.5C389.029,-256.5 500.412,-256.5 500.412,-256.5 506.412,-256.5 512.412,-262.5 512.412,-268.5 512.412,-268.5 512.412,-330.5 512.412,-330.5 512.412,-336.5 506.412,-342.5 500.412,-342.5 500.412,-342.5 389.029,-342.5 389.029,-342.5 383.029,-342.5 377.029,-336.5 377.029,-330.5 377.029,-330.5 377.029,-268.5 377.029,-268.5 377.029,-262.5 383.029,-256.5 389.029,-256.5"/>
<text text-anchor="middle" x="444.72" y="-327.3" font-family="Times,serif" font-size="14.00">GreenKiwi</text>
<polyline fill="none" stroke="black" points="377.029,-320.5 512.412,-320.5 "/>
<text text-anchor="start" x="385.029" y="-305.3" font-family="Times,serif" font-size="14.00">_id :BSON::ObjectId</text>
<text text-anchor="start" x="385.029" y="-291.3" font-family="Times,serif" font-size="14.00">created_at :Time</text>
<text text-anchor="start" x="385.029" y="-277.3" font-family="Times,serif" font-size="14.00">kiwi_url :String</text>
<text text-anchor="start" x="385.029" y="-263.3" font-family="Times,serif" font-size="14.00">updated_at :Time</text>
</g>
<!-- ProfileItem -->
<g id="node5" class="node"><title>ProfileItem</title>
<path fill="none" stroke="black" d="M358.325,-0.5C358.325,-0.5 531.115,-0.5 531.115,-0.5 537.115,-0.5 543.115,-6.5 543.115,-12.5 543.115,-12.5 543.115,-116.5 543.115,-116.5 543.115,-122.5 537.115,-128.5 531.115,-128.5 531.115,-128.5 358.325,-128.5 358.325,-128.5 352.325,-128.5 346.325,-122.5 346.325,-116.5 346.325,-116.5 346.325,-12.5 346.325,-12.5 346.325,-6.5 352.325,-0.5 358.325,-0.5"/>
<text text-anchor="middle" x="444.72" y="-113.3" font-family="Times,serif" font-size="14.00">ProfileItem</text>
<polyline fill="none" stroke="black" points="346.325,-106.5 543.115,-106.5 "/>
<text text-anchor="start" x="354.325" y="-91.3" font-family="Times,serif" font-size="14.00">_id :BSON::ObjectId</text>
<text text-anchor="start" x="354.325" y="-77.3" font-family="Times,serif" font-size="14.00">attr_id :BSON::ObjectId</text>
<text text-anchor="start" x="354.325" y="-63.3" font-family="Times,serif" font-size="14.00">created_at :Time</text>
<text text-anchor="start" x="354.325" y="-49.3" font-family="Times,serif" font-size="14.00">entry_concept :BSON::ObjectId</text>
<text text-anchor="start" x="354.325" y="-35.3" font-family="Times,serif" font-size="14.00">entry_select :BSON::ObjectId</text>
<text text-anchor="start" x="354.325" y="-21.3" font-family="Times,serif" font-size="14.00">entry_text :String</text>
<text text-anchor="start" x="354.325" y="-7.3" font-family="Times,serif" font-size="14.00">updated_at :Time</text>
</g>
<!-- GreenKiwi&#45;&gt;ProfileItem -->
<g id="edge2" class="edge"><title>GreenKiwi&#45;&gt;ProfileItem</title>
<path fill="none" stroke="#e1ad26" d="M439.049,-248.142C437.88,-216.34 437.661,-174.704 438.392,-139.218"/>
<ellipse fill="none" stroke="#e1ad26" cx="439.218" cy="-252.309" rx="4" ry="4"/>
<polygon fill="#e1ad26" stroke="#e1ad26" points="438.4,-138.902 443.135,-129.012 438.518,-133.904 438.636,-128.905 438.636,-128.905 438.636,-128.905 438.518,-133.904 434.138,-128.798 438.4,-138.902 438.4,-138.902"/>
</g>
<!-- IdAttribute -->
<g id="node4" class="node"><title>IdAttribute</title>
<path fill="none" stroke="black" d="M542.867,-165.5C542.867,-165.5 698.574,-165.5 698.574,-165.5 704.574,-165.5 710.574,-171.5 710.574,-177.5 710.574,-177.5 710.574,-421.5 710.574,-421.5 710.574,-427.5 704.574,-433.5 698.574,-433.5 698.574,-433.5 542.867,-433.5 542.867,-433.5 536.867,-433.5 530.867,-427.5 530.867,-421.5 530.867,-421.5 530.867,-177.5 530.867,-177.5 530.867,-171.5 536.867,-165.5 542.867,-165.5"/>
<text text-anchor="middle" x="620.72" y="-418.3" font-family="Times,serif" font-size="14.00">IdAttribute</text>
<polyline fill="none" stroke="black" points="530.867,-411.5 710.574,-411.5 "/>
<text text-anchor="start" x="538.867" y="-396.3" font-family="Times,serif" font-size="14.00">_id :BSON::ObjectId</text>
<text text-anchor="start" x="538.867" y="-382.3" font-family="Times,serif" font-size="14.00">act_section :String</text>
<text text-anchor="start" x="538.867" y="-368.3" font-family="Times,serif" font-size="14.00">base :Mongoid::Boolean</text>
<text text-anchor="start" x="538.867" y="-354.3" font-family="Times,serif" font-size="14.00">concept :BSON::ObjectId</text>
<text text-anchor="start" x="538.867" y="-340.3" font-family="Times,serif" font-size="14.00">created_at :Time</text>
<text text-anchor="start" x="538.867" y="-326.3" font-family="Times,serif" font-size="14.00">description :String</text>
<text text-anchor="start" x="538.867" y="-312.3" font-family="Times,serif" font-size="14.00">display_name :String</text>
<text text-anchor="start" x="538.867" y="-298.3" font-family="Times,serif" font-size="14.00">extender :Symbol</text>
<text text-anchor="start" x="538.867" y="-284.3" font-family="Times,serif" font-size="14.00">max :Float</text>
<text text-anchor="start" x="538.867" y="-270.3" font-family="Times,serif" font-size="14.00">min :Float</text>
<text text-anchor="start" x="538.867" y="-256.3" font-family="Times,serif" font-size="14.00">name :String</text>
<text text-anchor="start" x="538.867" y="-242.3" font-family="Times,serif" font-size="14.00">pattern :String</text>
<text text-anchor="start" x="538.867" y="-228.3" font-family="Times,serif" font-size="14.00">process_point :Symbol</text>
<text text-anchor="start" x="538.867" y="-214.3" font-family="Times,serif" font-size="14.00">required :Mongoid::Boolean</text>
<text text-anchor="start" x="538.867" y="-200.3" font-family="Times,serif" font-size="14.00">type :Symbol</text>
<text text-anchor="start" x="538.867" y="-186.3" font-family="Times,serif" font-size="14.00">updated_at :Time</text>
<text text-anchor="start" x="538.867" y="-172.3" font-family="Times,serif" font-size="14.00">verification_method :Symbol</text>
</g>
<!-- ProfileItem&#45;&gt;GreenKiwi -->
<g id="edge3" class="edge"><title>ProfileItem&#45;&gt;GreenKiwi</title>
<path fill="none" stroke="#6b6ea4" d="M451.044,-138.997C451.763,-173.709 451.572,-214.346 450.471,-245.915"/>
<polygon fill="#6b6ea4" stroke="#6b6ea4" points="451.042,-138.902 455.303,-128.798 450.923,-133.904 450.804,-128.905 450.804,-128.905 450.804,-128.905 450.923,-133.904 446.305,-129.012 451.042,-138.902 451.042,-138.902"/>
<polygon fill="#6b6ea4" stroke="#6b6ea4" points="450.455,-246.313 445.564,-256.128 450.258,-251.309 450.06,-256.305 450.06,-256.305 450.06,-256.305 450.258,-251.309 454.557,-256.483 450.455,-246.313 450.455,-246.313"/>
</g>
<!-- Ref&#45;&gt;Concept -->
<g id="edge4" class="edge"><title>Ref&#45;&gt;Concept</title>
<path fill="none" stroke="#9bea48" d="M266.462,-117.835C267.726,-153.856 267.801,-201.772 266.688,-239.206"/>
<polygon fill="#9bea48" stroke="#9bea48" points="266.45,-117.529 270.55,-107.358 266.252,-112.533 266.053,-107.537 266.053,-107.537 266.053,-107.537 266.252,-112.533 261.557,-107.716 266.45,-117.529 266.45,-117.529"/>
<polygon fill="#9bea48" stroke="#9bea48" points="266.682,-239.377 261.848,-249.22 266.514,-244.374 266.345,-249.371 266.345,-249.371 266.345,-249.371 266.514,-244.374 270.843,-249.523 266.682,-239.377 266.682,-239.377"/>
</g>
</g>
</svg>
